<svg xmlns="http://www.w3.org/2000/svg" width="92" height="44" viewBox="0 0 92 44" fill="none"><path fill-rule="evenodd" clip-rule="evenodd" d="M2.38224 5.19838C3.69792 5.19838 4.76448 4.03468 4.76448 2.59919C4.76448 1.1637 3.69792 0 2.38224 0C1.06657 0 0 1.1637 0 2.59919C0 4.03468 1.06657 5.19838 2.38224 5.19838ZM2.38224 43.3199C3.69792 43.3199 4.76448 42.1562 4.76448 40.7207C4.76448 39.2852 3.69792 38.1215 2.38224 38.1215C1.06657 38.1215 0 39.2852 0 40.7207C0 42.1562 1.06657 43.3199 2.38224 43.3199ZM4.76448 21.66C4.76448 23.0955 3.69792 24.2592 2.38224 24.2592C1.06657 24.2592 0 23.0955 0 21.66C0 20.2245 1.06657 19.0608 2.38224 19.0608C3.69792 19.0608 4.76448 20.2245 4.76448 21.66ZM72.2614 5.19844C73.5771 5.19844 74.6436 4.03474 74.6436 2.59925C74.6436 1.16375 73.5771 5.47429e-05 72.2614 5.47429e-05C70.9457 5.47429e-05 69.8792 1.16375 69.8792 2.59925C69.8792 4.03474 70.9457 5.19844 72.2614 5.19844ZM74.6436 40.7207C74.6436 42.1562 73.5771 43.3199 72.2614 43.3199C70.9457 43.3199 69.8792 42.1562 69.8792 40.7207C69.8792 39.2852 70.9457 38.1215 72.2614 38.1215C73.5771 38.1215 74.6436 39.2852 74.6436 40.7207ZM72.2614 24.2592C73.5771 24.2592 74.6436 23.0955 74.6436 21.66C74.6436 20.2245 73.5771 19.0608 72.2614 19.0608C70.9457 19.0608 69.8792 20.2245 69.8792 21.66C69.8792 23.0955 70.9457 24.2592 72.2614 24.2592ZM39.7039 2.59925C39.7039 4.03474 38.6374 5.19844 37.3217 5.19844C36.006 5.19844 34.9394 4.03474 34.9394 2.59925C34.9394 1.16375 36.006 5.47429e-05 37.3217 5.47429e-05C38.6374 5.47429e-05 39.7039 1.16375 39.7039 2.59925ZM37.3217 43.3199C38.6374 43.3199 39.7039 42.1562 39.7039 40.7207C39.7039 39.2852 38.6374 38.1215 37.3217 38.1215C36.006 38.1215 34.9394 39.2852 34.9394 40.7207C34.9394 42.1562 36.006 43.3199 37.3217 43.3199ZM39.7039 21.66C39.7039 23.0955 38.6374 24.2592 37.3217 24.2592C36.006 24.2592 34.9394 23.0955 34.9394 21.66C34.9394 20.2245 36.006 19.0608 37.3217 19.0608C38.6374 19.0608 39.7039 20.2245 39.7039 21.66ZM19.8521 5.19844C21.1678 5.19844 22.2343 4.03474 22.2343 2.59925C22.2343 1.16375 21.1678 5.47429e-05 19.8521 5.47429e-05C18.5364 5.47429e-05 17.4699 1.16375 17.4699 2.59925C17.4699 4.03474 18.5364 5.19844 19.8521 5.19844ZM22.2343 40.7207C22.2343 42.1562 21.1678 43.3199 19.8521 43.3199C18.5364 43.3199 17.4699 42.1562 17.4699 40.7207C17.4699 39.2852 18.5364 38.1215 19.8521 38.1215C21.1678 38.1215 22.2343 39.2852 22.2343 40.7207ZM19.8521 24.2592C21.1678 24.2592 22.2343 23.0955 22.2343 21.66C22.2343 20.2245 21.1678 19.0608 19.8521 19.0608C18.5364 19.0608 17.4699 20.2245 17.4699 21.66C17.4699 23.0955 18.5364 24.2592 19.8521 24.2592ZM92.1135 2.59925C92.1135 4.03474 91.0469 5.19844 89.7312 5.19844C88.4156 5.19844 87.349 4.03474 87.349 2.59925C87.349 1.16375 88.4156 5.47429e-05 89.7312 5.47429e-05C91.0469 5.47429e-05 92.1135 1.16375 92.1135 2.59925ZM89.7312 43.3199C91.0469 43.3199 92.1135 42.1562 92.1135 40.7207C92.1135 39.2852 91.0469 38.1215 89.7312 38.1215C88.4156 38.1215 87.349 39.2852 87.349 40.7207C87.349 42.1562 88.4156 43.3199 89.7312 43.3199ZM92.1135 21.66C92.1135 23.0955 91.0469 24.2592 89.7312 24.2592C88.4156 24.2592 87.349 23.0955 87.349 21.66C87.349 20.2245 88.4156 19.0608 89.7312 19.0608C91.0469 19.0608 92.1135 20.2245 92.1135 21.66ZM54.7915 5.19844C56.1072 5.19844 57.1738 4.03474 57.1738 2.59925C57.1738 1.16375 56.1072 5.47429e-05 54.7915 5.47429e-05C53.4759 5.47429e-05 52.4093 1.16375 52.4093 2.59925C52.4093 4.03474 53.4759 5.19844 54.7915 5.19844ZM57.1738 40.7207C57.1738 42.1562 56.1072 43.3199 54.7915 43.3199C53.4759 43.3199 52.4093 42.1562 52.4093 40.7207C52.4093 39.2852 53.4759 38.1215 54.7915 38.1215C56.1072 38.1215 57.1738 39.2852 57.1738 40.7207ZM54.7915 24.2592C56.1072 24.2592 57.1738 23.0955 57.1738 21.66C57.1738 20.2245 56.1072 19.0608 54.7915 19.0608C53.4759 19.0608 52.4093 20.2245 52.4093 21.66C52.4093 23.0955 53.4759 24.2592 54.7915 24.2592Z" fill="#F16413"></path></svg>